<svg width="617" height="253" viewBox="0 0 617 253" fill="none" xmlns="http://www.w3.org/2000/svg">
<path fill-rule="evenodd" clip-rule="evenodd" d="M45.0859 22.6502C67.8538 0.982584 105.02 -6.22155 134 5.77517L136.402 6.68142C146.446 10.9774 155.516 20.9416 160 30.7752C164.644 44.3245 162.728 59.7151 156.715 72.5095C148.799 86.7099 136.646 95.6903 123 103.775L124.137 105.4C131.368 116.476 134.006 129.412 137.086 142.111C138.235 146.717 139.565 151.251 141 155.775C146.724 156.374 146.724 156.374 151.625 153.838L154 150.775L155.355 149.037C165.592 134.903 169.988 118.771 174.162 102.091C175.504 96.781 176.937 91.4969 178.375 86.2127C178.626 85.2727 178.877 84.3325 179.136 83.364C179.367 82.5085 179.598 81.6528 179.836 80.7713C180.037 80.0204 180.24 79.2695 180.447 78.4959C181 76.7755 181 76.775 182 75.7752C183.562 75.6883 185.127 75.6681 186.691 75.6775L189.553 75.6873L192.562 75.7127L195.584 75.7263C198.056 75.7382 200.528 75.7547 203 75.7752L201.832 80.447C201.479 81.8592 201.126 83.2714 200.771 84.6834C199.769 88.6839 198.775 92.6866 197.797 96.6931C195.835 104.689 193.804 112.639 191.438 120.525C185.949 138.78 185.949 138.781 185 157.775C192.168 157.775 196.062 156.094 201.461 151.388C219.34 132.986 229.435 107.1 236 82.7752L238 75.7752H259C257.885 84.1394 255.904 91.9288 253.527 100.008C251.341 107.476 249.363 114.986 247.438 122.525C245.162 131.406 242.779 140.232 240.133 149.01C238.95 152.943 237.811 156.887 236.688 160.838L235 166.775C253.418 153.843 263.457 136.923 268.5 115.213C269.096 112.738 269.694 110.264 270.293 107.791C270.581 106.595 270.869 105.4 271.166 104.168C272.296 99.5745 273.529 95.015 274.812 90.4627C275.007 89.7718 275.202 89.0807 275.402 88.3689C275.931 86.5034 276.465 84.639 277 82.7752L279 75.7752H300L299 83.7752L300.906 82.3494C311.173 74.8811 319.008 72.1169 332 73.7752C338.596 76.1077 342.792 79.8661 346.16 85.9431C353.786 102.579 344.055 125.021 338.594 141.008C336.752 146.49 336.638 152.031 337 157.775C338.126 159.127 338.126 159.127 341.062 158.9C345.715 158.084 348.06 155.354 350.957 151.791C357.345 142.361 361.094 132.098 364 121.15C367.732 107.159 373.455 95.9755 384 85.7752L385.773 84.0095C395.117 75.3244 405.362 73.1969 417.711 73.4314C424.068 73.765 428.986 75.9697 433.641 80.3025C439.045 86.4056 439.39 91.2935 439.242 99.24C438.56 109.191 433.824 116.925 426.848 123.939C415.708 133.541 398.015 141.494 383 140.775C384.288 147.672 385.569 152.417 391.281 156.752C395.9 159.502 401.065 159.446 406.172 158.279C418.177 154.512 426.29 148.178 434.25 138.838C442.8 127.809 445.389 115.725 448.441 102.396C453.188 81.8558 459.561 61.6531 469 42.7752H446L443.5 35.4627C443.239 34.707 442.978 33.9512 442.709 33.1726C441.723 30.2506 441 27.8789 441 24.7752C444.519 23.187 447.278 22.5196 451.133 22.5095L454.078 22.5017L457.125 22.5252L460.102 22.5017C465.278 22.5154 469.87 22.9109 474.91 24.1228C477.561 24.7206 477.561 24.7207 480 24.7752C483.168 22.7749 483.168 22.7747 485.312 19.4627C492.577 10.3173 503.102 2.27226 515 0.775169C527.42 -0.316341 538.543 0.0325346 548.82 7.94704L551 9.77517L552.594 8.96657C555.543 7.50611 558.517 6.10476 561.5 4.71267L564.906 3.11501C572.803 -0.304891 582.756 -0.716382 591.062 1.64626C597.88 4.8159 603.089 9.77982 606 16.7752C607.153 25.312 605.337 33.8436 600.375 40.9002C590.098 53.363 577.312 58.5954 562 62.7752L559.711 63.4627C552.606 65.3786 545.296 64.9482 538 64.7752L536.773 68.5369C535.556 72.1924 534.261 75.8102 532.914 79.4197C521.298 110.603 510.378 149.676 524.355 181.9C529.926 192.891 537.323 200.191 548.762 204.916C557.832 207.323 569.414 207.197 577.895 203.037C586.337 197.978 591.944 192.952 594.812 183.338C596.716 175.263 596.69 169.519 592.617 162.053C590.038 158.421 587.148 156.35 583 154.775C578.569 154.088 576.655 154.429 572.688 156.525C569.487 159.135 569.487 159.135 568 162.775L568.312 166.588C568.4 169.341 568.234 170.455 566.59 172.709C564.789 174.487 562.932 176.141 561 177.775L557 181.775C556.033 180.72 555.077 179.656 554.125 178.588L552.508 176.795C547.824 170.521 548.312 163.273 549 155.775C549.891 152.715 551.154 150.359 553 147.775L555.25 144.588C561.495 138.201 568.72 134.595 577.761 134.395L581.951 134.405C587.809 134.542 592.063 135.715 597 138.775L600.062 140.463C608.171 146.846 614.082 154.436 616 164.775C617.802 180.275 615.609 193.662 606.074 206.361C599.534 213.973 592.417 220.137 583 223.775C582.375 224.032 581.75 224.289 581.105 224.553C574.796 226.942 568.956 227.28 562.25 227.213C561.188 227.204 560.126 227.196 559.032 227.187C541.355 226.807 527.319 219.426 515 206.775C505.011 195.895 499.859 181.002 497 166.775L495.75 167.947C487.312 175.556 478.182 179.3 466.707 179.017C459.823 178.401 455.237 175.862 450.543 170.814C447.392 166.65 445 162.044 445 156.775H443L442.219 158.564C436.582 168.79 422.603 174.599 412 177.775C403.003 180.09 390.216 180.71 381.953 176.107L380 174.775L377.609 173.162C373.05 169.845 369.76 166.694 367 161.775L364.938 163.9C356.834 171.913 348.723 179.016 336.812 179.463C330.72 179.163 326.365 178.151 322 173.775C315.253 165.485 313.951 156.203 315 145.775C316.562 137.905 319.192 130.254 321.668 122.635C326.163 109.002 326.163 109.002 326 94.7752C324.138 92.4946 324.138 92.4946 321.207 92.4744C313.5 93.1972 307.287 99.0161 302.375 104.65C288.422 122.981 281.6 145.52 276.505 167.677C275.768 170.74 274.893 173.754 274 176.775C273.428 176.748 272.856 176.72 272.267 176.692C257.389 176.174 247.967 178.655 235.979 187.457C233.953 188.806 231.947 189.734 229.715 190.697C225.554 192.695 224.039 195.498 222.438 199.713C221.862 201.064 221.284 202.414 220.703 203.763C220.42 204.438 220.137 205.113 219.846 205.808C212.373 223.182 199.687 240.864 182 248.775L180.039 249.736C171.918 253.128 161.309 253.276 152.891 250.896C146.573 247.996 141.876 243.702 138.871 237.412C136.702 230.846 137.118 223.816 139.938 217.525C149.89 200.401 172.581 193.929 190 187.15C191.223 186.673 191.223 186.673 192.471 186.186C194.811 185.278 197.155 184.38 199.5 183.486C200.212 183.212 200.924 182.937 201.657 182.654C204.586 181.552 206.843 180.775 210 180.775L210.367 178.799C211.289 173.989 212.302 169.385 214 164.775L212.383 166.349C202.941 175.187 194.339 179.154 181.395 179.06C176.879 178.681 175.249 177.853 172 174.775L169.625 172.65C168 170.775 168 170.775 168 168.775L166.059 170.201C156.075 177.387 148.335 180.132 136 178.775C127.537 175.224 122.533 168.685 118.988 160.414C115.874 152.074 114.136 143.617 112.465 134.89C110.82 126.926 108.445 119.657 104 112.775L100.812 110.775C96.71 107.858 96.4835 104.424 95.4453 99.6502C95 96.7752 95 96.7749 95 92.7752L98.1133 91.7088C106.793 88.6521 114.561 85.3217 122 79.7752L124.426 77.9744C131.275 72.4141 136.202 65.1695 139 56.7752C140.004 45.1432 140.004 45.1429 136.457 34.3806C129.26 26.4508 118.865 23.2395 108.477 22.5369C90.3601 22.1878 74.923 26.83 61 38.7752L59.1289 40.2869C52.5957 46.0635 47.8831 54.5839 46.4219 63.1736C46.2677 67.6341 46.5276 70.8107 48.5 74.8377C51.032 76.7999 52.0117 77.009 55 77.6502C57.0937 78.2986 57.0938 78.2986 59 79.7752C61.3404 85.4572 63 91.6018 63 97.7752C52.2713 100.144 43.6205 98.8377 34.25 93.0877C26.0329 84.6423 23.5905 76.2797 23.6348 64.8123C23.9971 48.3629 31.7545 36.2088 43 24.7752L45.0859 22.6502ZM199 202.775C191.554 205.651 184.103 208.535 176.792 211.744C169.25 215.19 159.942 218.663 156.812 226.9C157 229.775 157 229.775 158.375 232.15C161.134 233.858 162.224 234.065 165.375 234.15C174.343 233.682 180.049 229.666 186.301 223.51C191.397 218.062 199 210.656 199 202.775ZM488 50.7752C473.26 79.3963 459.717 119.322 463 151.775C464.338 155.217 466.033 157.53 469 159.775C472.957 160.361 475.262 160.128 478.875 158.4C492.309 148.039 498.794 132.916 502.498 116.835C503.362 112.956 504.261 109.087 505.187 105.222C505.381 104.416 505.569 103.632 505.758 102.849C508.103 93.0462 511.074 83.5138 514.273 73.9549C515.969 68.9293 517.509 63.8647 519 58.7752C508.915 57.0841 499.259 54.6308 489.582 51.326L488 50.7752ZM416 92.7752C405.531 91.8727 398.825 97.6633 393.204 105.979C392.795 106.611 392.397 107.224 392 107.838C389.249 112.043 387.495 115.696 387 120.775L389.125 120.9C398.274 120.502 411.693 113.961 417.938 107.213C420.287 103.871 421.234 100.91 421 96.7752C419 94.3377 419 94.3376 416 92.7752ZM579.75 20.5877C575.63 20.5264 572.715 20.9655 569 22.7752C563.42 26.2048 559.335 29.4265 557.484 35.8416L557 37.7752C556.323 39.7715 555.652 41.7703 555 43.7752C565.698 41.8139 575.35 38.4627 583.348 30.8416C585.833 27.7338 586.161 25.7133 586 21.7752C585 20.7752 585 20.7752 582.672 20.6072L579.75 20.5877ZM524.938 19.4627C513.238 19.5008 505.942 25.887 499 34.7752C508.86 38.6418 517.262 40.8904 528 39.7752C529 38.7752 529 38.775 530.812 36.1931L533 32.9627C535.277 29.6241 537.373 26.8207 538 22.7752C534.738 20.8876 532.301 19.8066 528.527 19.4119L524.938 19.4627Z" fill="#7785E3"/>
<path d="M103 43.7752C102.034 49.5683 100.742 55.1491 99.3125 60.8377L98.5059 64.0603C96.572 71.7049 94.4638 79.2852 92.2451 86.8513C90.6501 92.3421 89.2305 97.8525 87.9033 103.414C74.374 159.876 74.3737 159.876 53.0625 173.678C43.094 179.311 32.1884 180.605 20.9414 178.092C13.0954 175.142 4.11633 169.319 0 161.775C0.0259902 158.598 1.11411 157.66 3.36328 155.381L6.3125 152.963L9.23828 150.506C12 148.775 12 148.775 14.207 148.865C16.9698 150.267 18.8189 152.594 21 154.775C25.5402 157.701 29.6713 158.657 35 157.775C43.3861 155.127 47.8289 149.234 51.9375 141.775C60.1068 124.586 63.775 105.133 68.2676 86.7527C71.8162 72.3338 75.9779 58.067 80 43.7752H103Z" fill="#7785E3"/>
</svg>


